<svg height="512pt" viewBox="0 0 512 512.0018" width="512pt" xmlns="http://www.w3.org/2000/svg"><path d="m396.714844 119.46875h12.886718c24.898438-.015625 48.78125 9.871094 66.386719 27.476562 17.609375 17.605469 27.492188 41.492188 27.480469 66.390626v170.664062c.011719 24.902344-9.871094 48.785156-27.480469 66.390625-17.605469 17.605469-41.488281 27.492187-66.386719 27.476563h-307.199218c-24.902344.015624-48.785156-9.871094-66.390625-27.476563s-27.492188-41.488281-27.476563-66.390625v-170.664062c-.015625-24.898438 9.871094-48.785157 27.476563-66.390626 17.605469-17.605468 41.488281-27.492187 66.390625-27.476562zm0 0" fill="#f57c00"/><path d="m281.257812 99.5-25.257812 54.101562-22.269531-51.796874c6.398437-26.027344 24.234375-73.558594 71.25-92.417969 1.4375-.578125 2.976562-.867188 4.523437-.851563 3.074219-.007812 6.023438 1.210938 8.1875 3.394532 2.164063 2.179687 3.367188 5.136718 3.332032 8.210937.007812 3.027344-1.226563 5.925781-3.410157 8.019531-20.066406 18.8125-32.925781 44.046875-36.355469 71.339844zm0 0" fill="#8bc34a"/><g fill="#ffb301"><path d="m93.867188 179.203125c-.019532-24.902344 9.863281-48.789063 27.472656-66.398437 17.605468-17.605469 41.492187-27.492188 66.394531-27.46875 15.078125-.128907 29.804687 4.566406 42.027344 13.394531 15.765625 10.253906 25.558593 27.542969 26.238281 46.335937.679688-18.792968 10.46875-36.078125 26.230469-46.335937 12.226562-8.832031 26.957031-13.527344 42.035156-13.394531 24.902344-.023438 48.789063 9.863281 66.398437 27.46875 17.609376 17.609374 27.492188 41.496093 27.46875 66.398437l-7.464843 253.4375c-.304688 12.472656-4.5625 24.523437-12.160157 34.414063-2.984374 3.855468-6.265624 7.472656-9.8125 10.8125-17.40625 16.472656-40.464843 25.632812-64.429687 25.601562h-136.53125c-29.03125-.070312-56.414063-13.5-74.238281-36.414062-7.597656-9.890626-11.855469-21.941407-12.160156-34.414063zm0 0"/><path d="m51.378906 170.308594c10.703125 0 19.378906 8.675781 19.378906 19.378906v88.175781c0 10.703125-8.675781 19.378907-19.378906 19.378907s-19.378906-8.675782-19.378906-19.378907v-88.175781c0-10.703125 8.675781-19.378906 19.378906-19.378906zm0 0"/><path d="m462.261719 170.308594c10.703125 0 19.378906 8.675781 19.378906 19.378906v88.175781c0 10.703125-8.675781 19.378907-19.378906 19.378907s-19.378907-8.675782-19.378907-19.378907v-88.175781c0-10.703125 8.675782-19.378906 19.378907-19.378906zm0 0"/></g><path d="m230.402344 243.203125c0 35.34375-28.65625 64-64 64-35.347656 0-64-28.65625-64-64 0-35.347656 28.652344-64 64-64 35.34375 0 64 28.652344 64 64zm0 0" fill="#37474f"/><path d="m196.265625 341.335938h119.46875c9.425781 0 17.066406 7.640624 17.066406 17.066406v25.597656c0 42.417969-34.382812 76.800781-76.800781 76.800781-42.414062 0-76.800781-34.382812-76.800781-76.800781v-25.597656c0-4.527344 1.800781-8.867188 5-12.070313 3.199219-3.199219 7.542969-4.996093 12.066406-4.996093zm0 0" fill="#37474f"/><path d="m319.832031 426.667969c0-18.851563-28.578125-34.132813-63.832031-34.132813-35.25 0-63.828125 15.28125-63.828125 34.132813 0 18.851562 28.578125 34.132812 63.828125 34.132812 35.253906 0 63.832031-15.28125 63.832031-34.132812zm0 0" fill="#e91e63"/><path d="m179.199219 217.601562c-.015625 19.007813-13.917969 35.148438-32.710938 37.984376-18.792969 2.839843-36.839843-8.480469-42.464843-26.636719v-.082031c5.527343-23.875 24.167968-42.515626 48.042968-48.042969h.082032c16.074218 5.046875 27.023437 19.929687 27.050781 36.777343zm0 0" fill="#fff"/><path d="m212.738281 286.039062.597657.511719c-4.550782 5.078125-9.953126 9.320313-15.960938 12.542969l-.339844-.511719c-.25.070313-.507812.101563-.769531.085938-9.421875 0-17.066406-7.640625-17.066406-17.066407 0-9.425781 7.644531-17.066406 17.066406-17.066406 9.425781 0 17.070313 7.640625 17.070313 17.066406-.027344 1.496094-.226563 2.988282-.597657 4.4375zm0 0" fill="#fff"/><path d="m409.601562 243.203125c0 35.34375-28.65625 64-64 64-35.347656 0-64-28.65625-64-64 0-35.347656 28.652344-64 64-64 35.34375 0 64 28.652344 64 64zm0 0" fill="#37474f"/><path d="m358.402344 217.601562c-.019532 19.007813-13.917969 35.148438-32.710938 37.984376-18.796875 2.839843-36.84375-8.480469-42.46875-26.636719v-.082031c5.527344-23.875 24.167969-42.515626 48.042969-48.042969h.085937c16.070313 5.046875 27.019532 19.929687 27.050782 36.777343zm0 0" fill="#fff"/><path d="m391.9375 286.039062.597656.511719c-4.550781 5.078125-9.949218 9.320313-15.957031 12.542969l-.34375-.511719c-.25.070313-.507813.101563-.765625.085938-9.425781 0-17.066406-7.640625-17.066406-17.066407 0-9.425781 7.640625-17.066406 17.066406-17.066406s17.066406 7.640625 17.066406 17.066406c-.027344 1.496094-.226562 2.988282-.597656 4.4375zm0 0" fill="#fff"/><path d="m102.402344 486.402344h17.757812c18.609375 16.550781 42.667969 25.667968 67.574219 25.597656h136.53125c24.910156.066406 48.972656-9.046875 67.585937-25.597656h17.75c56.527344-.0625 102.339844-45.871094 102.398438-102.402344v-170.664062c-.058594-56.53125-45.871094-102.339844-102.398438-102.402344h-9.164062c-19.375-21.699219-47.078125-34.113282-76.171875-34.132813-10.621094-.058593-21.152344 1.96875-30.992187 5.972657 6.023437-18.4375 16.453124-35.132813 30.378906-48.640626 3.75-3.691406 5.875-8.726562 5.90625-13.992187-.015625-6.703125-3.359375-12.960937-8.917969-16.703125-5.5625-3.742188-12.617187-4.476562-18.832031-1.96875-43.863282 17.597656-64 57.796875-73.019532 86.410156-12.425781-7.351562-26.617187-11.179687-41.054687-11.078125-29.089844.019531-56.789063 12.433594-76.160156 34.132813h-9.171875c-56.53125.0625-102.339844 45.871094-102.402344 102.402344v170.664062c.0625 56.53125 45.871094 102.339844 102.402344 102.402344zm205.847656-469.128906c.402344-.148438.828125-.21875 1.253906-.207032.808594 0 1.582032.328125 2.144532.90625s.867187 1.359375.84375 2.167969c0 .765625-.332032 1.492187-.914063 1.988281-20.398437 19.417969-33.839844 45.011719-38.246094 72.832032-6.859375 5.457031-12.722656 12.058593-17.332031 19.515624-3.507812-5.722656-7.785156-10.933593-12.714844-15.488281 7.023438-25.402343 24.261719-65.390625 64.964844-81.714843zm-291.183594 196.0625c.058594-45.738282 36.167969-83.296876 81.871094-85.15625-8.902344 15.53125-13.589844 33.121093-13.601562 51.023437 0 4.710937 3.820312 8.53125 8.53125 8.53125 4.714843 0 8.535156-3.820313 8.535156-8.53125-.023438-22.640625 8.960937-44.355469 24.96875-60.363281 16.007812-16.007813 37.726562-24.992188 60.363281-24.972656 13.253906-.097657 26.195313 4.007812 36.964844 11.734374 13.671875 8.558594 22.203125 23.347657 22.769531 39.464844 0 4.714844 3.820312 8.535156 8.53125 8.535156 4.714844 0 8.535156-3.820312 8.535156-8.535156.542969-15.855468 8.835938-30.4375 22.1875-39.011718.195313-.144532.355469-.300782.542969-.445313 10.78125-7.734375 23.734375-11.84375 37-11.742187 22.640625-.019532 44.355469 8.964843 60.363281 24.972656 16.007813 16.007812 24.992188 37.722656 24.972656 60.363281 0 4.710937 3.820313 8.53125 8.53125 8.53125 4.714844 0 8.535157-3.820313 8.535157-8.53125-.007813-17.902344-4.699219-35.492187-13.601563-51.023437 45.699219 1.859374 81.808594 39.417968 81.867188 85.15625v170.664062c-.050782 47.109375-38.226563 85.28125-85.332032 85.335938h-2.140624c4.164062-5.761719 7.707031-11.945313 10.578124-18.449219 1.902344-4.316407-.058593-9.351563-4.371093-11.253907-4.316407-1.898437-9.351563.058594-11.253907 4.375-9 20.300782-25.515624 36.324219-46.078124 44.707032-10.1875 4.125-21.078126 6.238281-32.070313 6.21875h-136.53125c-21.789063.035156-42.761719-8.300782-58.582031-23.285156-8.328125-7.792969-14.984375-17.195313-19.566406-27.640626-1.898438-4.316406-6.9375-6.273437-11.25-4.375-4.316407 1.902344-6.273438 6.9375-4.375 11.253907 2.871093 6.503906 6.417968 12.6875 10.582031 18.449219h-2.140625c-47.109375-.054688-85.28125-38.226563-85.335938-85.335938zm0 0"/><path d="m166.402344 315.734375c40.058594 0 72.53125-32.472656 72.53125-72.53125 0-40.0625-32.472656-72.535156-72.53125-72.535156s-72.535156 32.472656-72.535156 72.535156c.046874 40.039063 32.496093 72.484375 72.535156 72.53125zm21.332031-34.132813c0-4.714843 3.820313-8.535156 8.53125-8.535156 4.714844 0 8.535156 3.820313 8.535156 8.535156-.015625.597657-.101562 1.1875-.257812 1.765626-2.65625 2.535156-5.558594 4.800781-8.660157 6.765624-4.5625-.203124-8.152343-3.964843-8.148437-8.53125zm34.132813-38.398437c-.003907 8.003906-1.75 15.914063-5.121094 23.175781-5.472656-7.539062-14.617188-11.492187-23.859375-10.3125-9.238281 1.175782-17.101563 7.300782-20.503907 15.96875-3.40625 8.671875-1.8125 18.507813 4.15625 25.660156-3.34375.636719-6.734374.964844-10.136718.972657-26.167969-.039063-48.761719-18.332031-54.238282-43.921875 18.683594 14.261718 45.039063 12.5 61.660157-4.121094 16.621093-16.621094 18.382812-42.976562 4.121093-61.660156 25.589844 5.476562 43.882813 28.070312 43.921876 54.238281zm-70.230469-53.410156c12.757812 4.949219 20.519531 17.9375 18.835937 31.515625s-12.382812 24.277344-25.960937 25.964844-26.566407-6.070313-31.519531-18.824219c5.21875-18.769531 19.882812-33.433594 38.644531-38.65625zm0 0"/><path d="m345.601562 315.734375c40.058594 0 72.53125-32.472656 72.53125-72.53125 0-40.0625-32.472656-72.535156-72.53125-72.535156-40.058593 0-72.535156 32.472656-72.535156 72.535156.046875 40.039063 32.496094 72.484375 72.535156 72.53125zm21.332032-34.132813c0-4.714843 3.820312-8.535156 8.535156-8.535156 4.710938 0 8.53125 3.820313 8.53125 8.535156-.015625.597657-.101562 1.1875-.253906 1.765626-2.660156 2.535156-5.5625 4.800781-8.664063 6.765624-4.5625-.203124-8.152343-3.964843-8.148437-8.53125zm34.132812-38.398437c-.003906 8.003906-1.75 15.914063-5.117187 23.175781-5.472657-7.539062-14.621094-11.492187-23.859375-10.3125-9.242188 1.175782-17.105469 7.300782-20.507813 15.96875-3.40625 8.671875-1.8125 18.507813 4.15625 25.660156-3.339843.636719-6.734375.964844-10.136719.972657-26.167968-.039063-48.761718-18.332031-54.238281-43.921875 18.6875 14.261718 45.039063 12.5 61.664063-4.121094 16.621094-16.621094 18.382812-42.976562 4.121094-61.660156 25.585937 5.476562 43.878906 28.070312 43.917968 54.238281zm-70.226562-53.410156c12.753906 4.949219 20.515625 17.9375 18.832031 31.515625s-12.378906 24.277344-25.960937 25.964844c-13.578126 1.6875-26.566407-6.070313-31.519532-18.824219 5.21875-18.769531 19.882813-33.433594 38.648438-38.65625zm0 0"/><path d="m170.667969 358.402344v25.597656c-.011719 16.816406 4.972656 33.257812 14.320312 47.234375l.117188.195313c15.816406 23.683593 42.414062 37.90625 70.894531 37.90625s55.078125-14.222657 70.894531-37.90625l.121094-.195313c9.347656-13.976563 14.332031-30.417969 14.320313-47.234375v-25.597656c0-14.140625-11.464844-25.601563-25.601563-25.601563h-119.46875c-14.136719 0-25.597656 11.460938-25.597656 25.601563zm85.332031 93.867187c-20.679688-.007812-40.238281-9.40625-53.160156-25.550781 12.882812-16.207031 32.457031-25.648438 53.160156-25.648438 20.707031 0 40.277344 9.441407 53.164062 25.648438-12.925781 16.144531-32.484374 25.542969-53.164062 25.550781zm68.265625-93.867187v25.597656c0 9.441406-1.972656 18.777344-5.792969 27.410156-16.074218-17.46875-38.730468-27.410156-62.472656-27.410156-23.738281 0-46.394531 9.941406-62.472656 27.410156-3.820313-8.632812-5.792969-17.96875-5.792969-27.410156v-25.597656c0-4.714844 3.820313-8.535156 8.53125-8.535156h119.46875c4.710937 0 8.53125 3.820312 8.53125 8.535156zm0 0"/></svg>